<?xml version="1.0"?>
<svg width="640" height="350" xmlns="http://www.w3.org/2000/svg" xmlns:svg="http://www.w3.org/2000/svg" xmlns:xlink="http://www.w3.org/1999/xlink">
 <!-- Created with SVG-edit - https://github.com/SVG-Edit/svgedit-->
 <defs>
  <symbol height="32px" id="svg_4" viewBox="0 0 32 32" width="32px" xmlns="http://www.w3.org/2000/svg">
   <title/>
   <desc/>

   <g fill="none" fill-rule="evenodd" id="svg_1">
    <g fill="#929292" id="svg_2">
     <path d="m17,9c-9,0 -13,7 -13,7c0,0 4,7 13,7c9,0 13,-7 13,-7c0,0 -4,-7 -13,-7l0,0zm0,11c2.20914,0 4,-1.79086 4,-4c0,-2.20914 -1.79086,-4 -4,-4c-2.20914,0 -4,1.79086 -4,4c0,2.20914 1.79086,4 4,4l0,0zm0,-1c1.65685,0 3,-1.34315 3,-3c0,-1.65685 -1.34315,-3 -3,-3c-1.65685,0 -3,1.34315 -3,3c0,1.65685 1.34315,3 3,3l0,0zm0,-2c0.55228,0 1,-0.44772 1,-1c0,-0.55228 -0.44772,-1 -1,-1c-0.55228,0 -1,0.44772 -1,1c0,0.55228 0.44772,1 1,1l0,0z" id="svg_3"/>
    </g>
   </g>
  </symbol>
 </defs>
 <g class="layer">
  <title>Layer 1</title>
  <use id="svg_5" transform="matrix(24.4558 0 0 24.4558 -1274.02 -828.514)" x="48.2" xlink:href="#svg_4" y="25.002505"/>
  <g id="svg_6"/>
  <line fill="none" id="svg_7" stroke="#929292" stroke-width="80" x1="632.499996" x2="9.500026" y1="10.500003" y2="336.500002"/>
 </g>
</svg>